{"title":"The.Martian.2015.HDTS.NEWSOURCE.x264-CM8","uid":12933696,"size":1093419948,"categoryP":"video","categoryS":"movies","magnet":"?xt=urn:btih:716a7d078c7555966ef36cded1d40836aba10039&amp;dn=The.Martian.2015.HDTS.NEWSOURCE.x264-CM8&amp;tr=udp%3A%2F%2Ftracker.leechers-paradise.org%3A6969&amp;tr=udp%3A%2F%2Fzer0day.ch%3A1337&amp;tr=udp%3A%2F%2Fopen.demonii.com%3A1337&amp;tr=udp%3A%2F%2Ftracker.coppersurfer.tk%3A6969&amp;tr=udp%3A%2F%2Fexodus.desync.com%3A6969","seeders":0,"leechers":0,"uploader":".BONE.","files":1,"time":1449551329,"description":"http://www.imdb.com/title/tt3659388/\r\n \r\nSOURCE: 1080p-HOM [Thnx]\r\n \r\nThis is a new clean source without any site logos or dupeframes, but did have HC subs still, i just cropped the bottom line off,\r\nthe audio is in sync. Big Thnx to HOM :wink:\r\n                            \nhttp://screenshotcomparison.com/comparison/153448/picture:0\r\n \r\nGeneral\r\nComplete name                            : The.Martian.2015.HDTS.NEWSOURCE.x264-CM8.mp4\r\nFormat                                   : MPEG-4\r\nFormat profile                           : Base Media\r\nCodec ID                                 : isom\r\nFile size                                : 1.02 GiB\r\nDuration                                 : 2h 15mn\r\nOverall bit rate mode                    : Variable\r\nOverall bit rate                         : 1 075 Kbps\r\nEncoded date                             : UTC 2015-12-08 00:35:04\r\nTagged date                              : UTC 2015-12-08 00:35:04\r\n \r\nVideo\r\nID                                       : 1\r\nFormat                                   : AVC\r\nFormat/Info                              : Advanced Video Codec\r\nFormat profile                           :   \r\nFormat settings, CABAC                   : Yes\r\nFormat settings, ReFrames                : 3 frames\r\nCodec ID                                 : avc1\r\nCodec ID/Info                            : Advanced Video Coding\r\nDuration                                 : 2h 15mn\r\nBit rate mode                            : Variable\r\nBit rate                                 : 978 Kbps\r\nWidth                                    : 720 pixels\r\nHeight                                   : 272 pixels\r\nDisplay aspect ratio                     : 2.647\r\nFrame rate mode                          : Constant\r\nFrame rate                               : 24.000 fps\r\nColor space                              : YUV\r\nChroma subsampling                       : 4:2:0\r\nBit depth                                : 8 bits\r\nScan type                                : Progressive\r\nBits/(Pixel*Frame)                       : 0.208\r\nStream size                              : 948 MiB (91%)\r\nWriting library                          : x264 core 148 r2638 7599210\r\n \r\nAudio\r\nID                                       : 2\r\nFormat                                   : AAC\r\nFormat/Info                              : Advanced Audio Codec\r\nFormat profile                           : LC\r\nCodec ID                                 : 40\r\nDuration                                 : 2h 15mn\r\nBit rate mode                            : Variable\r\nBit rate                                 : 93.6 Kbps\r\nMaximum bit rate                         : 125 Kbps\r\nChannel(s)                               : 2 channels\r\nChannel positions                        : Front: L R\r\nSampling rate                            : 48.0 KHz\r\nCompression mode                         : Lossy\r\nStream size                              : 90.8 MiB (9%)\r\nLanguage                                 : English\r\nEncoded date                             : UTC 2015-12-07 20:51:31\r\nTagged date                              : UTC 2015-12-08 00:36:23","torrent":{"xt":"urn:btih:716a7d078c7555966ef36cded1d40836aba10039","amp;dn":"The.Martian.2015.HDTS.NEWSOURCE.x264-CM8","amp;tr":["udp%3A%2F%2Ftracker.leechers-paradise.org%3A6969","udp%3A%2F%2Fzer0day.ch%3A1337","udp%3A%2F%2Fopen.demonii.com%3A1337","udp%3A%2F%2Ftracker.coppersurfer.tk%3A6969","udp%3A%2F%2Fexodus.desync.com%3A6969"],"infoHash":"716a7d078c7555966ef36cded1d40836aba10039","infoHashBuffer":{"type":"Buffer","data":[113,106,125,7,140,117,85,150,110,243,108,222,209,212,8,54,171,161,0,57]},"announce":[],"urlList":[]}}